<?xml version="1.0" encoding="UTF-8" ?>
<!DOCTYPE svg PUBLIC "-//W3C//DTD SVG 1.1//EN" "http://www.w3.org/Graphics/SVG/1.1/DTD/svg11.dtd">
<svg width="1379pt" height="442pt" viewBox="0 0 1379 442" version="1.1" xmlns="http://www.w3.org/2000/svg">
<g id="#bf271fff">
<path fill="#bf271f" opacity="1.00" d=" M 820.90 121.98 C 820.79 115.69 830.37 119.79 834.89 119.10 C 836.42 122.37 832.10 130.14 837.70 130.46 C 837.82 132.07 838.05 135.31 838.16 136.93 C 854.75 137.21 871.34 136.79 887.94 137.06 C 888.07 144.02 888.11 150.99 887.94 157.96 C 878.67 158.24 869.40 157.72 860.16 158.08 C 860.08 159.45 860.02 160.82 859.99 162.19 C 852.69 163.23 845.22 163.48 837.99 161.99 C 837.95 160.69 837.89 159.39 837.79 158.09 C 826.25 157.86 814.70 157.87 803.17 158.10 C 803.10 159.35 803.08 160.61 803.11 161.88 C 797.17 163.29 790.95 163.40 784.98 162.23 C 784.94 160.83 784.88 159.44 784.82 158.04 C 776.56 157.87 768.30 158.13 760.06 157.94 C 759.90 150.97 759.86 144.01 760.06 137.05 C 774.36 136.75 788.68 137.28 802.99 136.91 C 804.03 132.58 803.63 129.17 799.05 129.73 C 794.80 115.67 816.02 127.38 820.90 121.98 Z" />
<path fill="#bf271f" opacity="1.00" d=" M 710.06 123.05 C 718.34 122.91 726.63 122.90 734.94 123.07 C 735.02 137.04 735.14 151.03 734.90 165.00 C 726.62 165.00 718.36 165.00 710.10 165.00 C 709.89 151.02 709.94 137.03 710.06 123.05 Z" />
</g>
<g id="#be261fff">
<path fill="#be261f" opacity="1.00" d=" M 129.10 123.05 C 139.71 122.96 150.34 122.85 160.95 123.07 C 160.92 134.71 161.30 146.37 160.87 158.00 C 150.28 158.00 139.69 158.00 129.10 158.00 C 128.99 146.36 128.78 134.70 129.10 123.05 Z" />
<path fill="#be261f" opacity="1.00" d=" M 1144.55 125.58 C 1146.03 119.45 1151.95 126.19 1152.44 129.57 C 1156.61 129.80 1156.55 135.10 1161.86 133.12 C 1163.52 135.29 1165.11 139.52 1168.83 140.19 C 1171.84 142.63 1171.96 148.90 1176.93 148.00 C 1176.96 144.27 1177.04 136.80 1177.08 133.06 C 1204.37 132.96 1231.66 132.93 1258.95 133.07 C 1258.98 139.04 1259.24 145.03 1258.92 151.00 C 1219.61 151.03 1180.30 150.95 1140.99 151.03 C 1135.66 152.83 1131.73 148.85 1130.62 144.33 C 1127.82 144.42 1126.13 143.29 1127.12 140.33 C 1132.88 140.22 1133.05 133.13 1137.84 131.85 C 1140.88 130.04 1140.45 125.51 1144.55 125.58 Z" />
</g>
<g id="#c1281eff">
<path fill="#c1281e" opacity="1.00" d=" M 336.06 123.06 C 346.69 122.96 357.32 122.85 367.95 123.07 C 368.13 131.36 367.86 139.65 368.06 147.94 C 395.36 148.18 422.66 147.82 449.96 148.07 C 449.99 152.70 450.22 157.36 449.93 162.00 C 385.63 162.00 321.34 162.00 257.04 162.00 C 256.95 157.35 256.77 152.69 257.08 148.05 C 283.37 147.80 309.67 148.24 335.95 147.90 C 336.13 139.62 335.86 131.34 336.06 123.06 Z" />
<path fill="#c1281e" opacity="1.00" d=" M 550.09 137.05 C 589.04 136.97 628.00 136.93 666.95 137.07 C 666.98 146.36 667.22 155.66 666.91 164.95 C 650.28 165.11 633.64 164.95 617.01 165.01 C 606.35 164.96 595.70 164.96 585.06 165.01 C 573.39 164.85 561.71 165.28 550.06 164.90 C 550.00 155.62 549.77 146.33 550.09 137.05 Z" />
</g>
<g id="#c0281fff">
<path fill="#c0281f" opacity="1.00" d=" M 967.10 123.06 C 976.36 123.00 985.66 122.77 994.95 123.09 C 994.96 139.72 995.17 156.37 994.92 173.00 C 985.63 173.00 976.35 173.00 967.08 173.00 C 966.98 156.36 966.83 139.70 967.10 123.06 Z" />
</g>
<g id="#c3291eff">
<path fill="#c3291e" opacity="1.00" d=" M 1024.48 123.18 C 1027.52 124.00 1034.38 120.52 1034.43 125.83 C 1040.25 126.18 1046.13 125.78 1051.99 126.09 C 1050.67 129.41 1055.01 137.48 1049.13 137.40 C 1049.10 140.04 1049.05 145.31 1049.02 147.95 C 1068.98 148.17 1088.96 147.82 1108.93 148.06 C 1109.08 156.35 1109.08 164.64 1108.93 172.94 C 1085.38 173.21 1061.82 172.76 1038.28 173.10 C 1038.15 173.82 1037.90 175.26 1037.78 175.97 C 1027.23 176.01 1016.69 175.99 1006.16 176.01 C 1006.64 172.26 1010.14 170.49 1009.17 165.26 C 1015.32 166.23 1012.20 158.98 1013.15 155.30 C 1020.91 155.92 1015.18 144.91 1017.20 140.45 C 1023.06 139.24 1018.74 130.88 1020.16 126.29 C 1022.30 126.12 1024.33 125.74 1024.48 123.18 Z" />
</g>
<g id="#c0271fff">
<path fill="#c0271f" opacity="1.00" d=" M 1298.06 123.07 C 1306.34 122.90 1314.63 122.90 1322.94 123.07 C 1323.05 138.37 1323.06 153.69 1322.94 169.00 C 1314.63 169.00 1306.36 169.00 1298.08 169.00 C 1297.90 153.69 1297.94 138.38 1298.06 123.07 Z" />
<path fill="#c0271f" opacity="1.00" d=" M 68.16 130.02 C 70.76 130.65 76.62 128.14 76.42 132.82 C 80.62 134.60 91.01 129.43 90.28 136.87 C 96.25 136.70 104.30 134.88 100.92 143.77 C 94.26 142.67 98.01 150.87 96.87 154.75 C 92.79 154.31 92.16 157.02 92.75 161.01 C 81.22 161.00 69.69 160.98 58.16 161.01 C 58.74 156.73 63.20 154.83 61.17 148.32 C 68.07 149.59 61.87 139.75 67.76 139.55 C 67.86 137.17 68.06 132.40 68.16 130.02 Z" />
</g>
<g id="#c2291eff">
<path fill="#c2291e" opacity="1.00" d=" M 920.06 133.05 C 929.67 133.04 939.32 132.73 948.95 133.10 C 949.03 147.06 949.10 161.03 948.93 175.00 C 939.30 175.00 929.67 175.00 920.06 175.00 C 919.92 161.02 919.93 147.03 920.06 133.05 Z" />
<path fill="#c2291e" opacity="1.00" d=" M 471.09 137.05 C 495.04 136.97 519.00 136.92 542.95 137.07 C 542.98 146.36 543.22 155.66 542.91 164.95 C 535.63 165.16 528.35 164.80 521.08 165.07 C 521.04 167.80 520.96 173.27 520.93 176.00 C 511.64 176.00 502.36 176.00 493.08 176.00 C 493.03 173.27 492.94 167.80 492.89 165.06 C 485.60 164.83 478.32 165.19 471.05 164.93 C 471.00 155.64 470.77 146.34 471.09 137.05 Z" />
</g>
<g id="#c42a1dff">
<path fill="#c42a1d" opacity="1.00" d=" M 1266.06 140.07 C 1273.34 139.96 1280.64 139.80 1287.95 140.07 C 1288.05 152.04 1288.07 164.02 1287.94 176.00 C 1280.64 176.00 1273.35 176.00 1266.08 176.00 C 1265.88 164.02 1265.93 152.04 1266.06 140.07 Z" />
</g>
<g id="#c52b1dff">
<path fill="#c52b1d" opacity="1.00" d=" M 1140.99 151.03 C 1180.30 150.95 1219.61 151.03 1258.92 151.00 C 1258.98 159.66 1259.23 168.34 1258.91 177.00 C 1250.61 177.00 1242.33 177.00 1234.06 177.00 C 1233.83 169.68 1234.13 162.36 1233.95 155.05 C 1221.97 154.94 1210.00 154.91 1198.04 155.06 C 1197.82 162.37 1198.18 169.69 1197.94 177.00 C 1190.95 177.00 1184.01 177.00 1177.06 177.00 C 1176.84 169.66 1177.13 162.32 1176.94 154.99 C 1167.48 152.41 1167.10 163.39 1159.34 165.38 C 1160.02 170.00 1154.97 170.00 1155.66 165.39 C 1152.71 165.39 1151.73 162.79 1149.57 161.42 C 1148.85 155.73 1139.91 157.04 1140.99 151.03 Z" />
</g>
<g id="#c92d1cff">
<path fill="#c92d1c" opacity="1.00" d=" M 129.10 158.00 C 139.69 158.00 150.28 158.00 160.87 158.00 C 160.94 159.74 161.07 163.21 161.13 164.95 C 183.74 165.20 206.35 164.77 228.95 165.09 C 229.01 171.05 229.24 177.03 228.94 183.00 C 168.35 183.01 107.77 182.98 47.18 183.02 C 44.63 177.32 55.55 182.89 51.06 175.01 C 53.12 172.42 54.47 169.61 54.18 165.26 C 57.26 165.55 58.52 164.03 58.16 161.01 C 69.69 160.98 81.22 161.00 92.75 161.01 C 92.92 162.31 93.09 163.61 93.27 164.92 C 105.13 165.09 117.00 165.08 128.87 164.94 C 128.93 163.21 129.04 159.74 129.10 158.00 Z" />
<path fill="#c92d1c" opacity="1.00" d=" M 257.04 162.00 C 321.34 162.00 385.63 162.00 449.93 162.00 C 449.94 164.73 449.97 170.20 449.98 172.94 C 427.32 173.21 404.65 172.78 382.00 173.08 C 380.48 177.45 386.83 174.61 386.31 178.76 C 388.15 184.18 396.96 180.29 396.29 186.72 C 398.57 186.84 400.88 187.03 400.01 189.96 C 388.00 190.07 375.99 189.95 363.98 190.03 C 360.64 191.25 361.68 186.93 358.99 187.02 C 354.16 187.53 359.86 178.00 354.39 180.20 C 354.30 182.64 352.41 183.10 350.35 183.36 C 350.43 186.17 348.98 187.41 346.22 187.34 C 345.74 189.98 347.46 195.32 343.02 194.04 C 330.01 193.93 317.00 194.07 304.00 193.96 C 301.94 187.38 310.84 192.34 312.23 187.24 C 315.63 181.33 323.50 179.74 325.06 173.07 C 302.38 172.78 279.70 173.23 257.02 172.92 C 257.03 170.19 257.04 164.73 257.04 162.00 Z" />
</g>
<g id="#cb2f1bff">
<path fill="#cb2f1b" opacity="1.00" d=" M 773.99 162.01 C 776.74 162.07 782.23 162.18 784.98 162.23 C 790.95 163.40 797.17 163.29 803.11 161.88 C 808.43 163.67 811.21 168.70 814.24 172.91 C 820.22 172.34 829.34 175.77 832.36 169.40 C 837.18 169.07 832.70 161.01 837.99 161.99 C 845.22 163.48 852.69 163.23 859.99 162.19 C 863.00 160.21 875.16 162.41 867.39 165.43 C 868.14 170.40 861.04 167.64 863.01 172.94 C 872.64 173.27 882.30 172.67 891.95 173.09 C 892.07 180.04 892.11 187.00 891.94 193.95 C 846.64 194.03 801.34 194.05 756.05 193.94 C 755.90 186.98 755.86 180.01 756.06 173.04 C 763.35 172.84 770.67 173.20 777.99 172.93 C 778.12 170.35 778.09 167.78 777.91 165.22 C 775.54 165.15 773.03 165.10 773.99 162.01 Z" />
</g>
<g id="#cc2f1aff">
<path fill="#cc2f1a" opacity="1.00" d=" M 585.06 165.01 C 595.70 164.96 606.35 164.96 617.01 165.01 C 617.36 167.33 616.99 169.46 614.21 169.43 C 613.13 173.32 616.74 181.34 610.17 180.29 C 611.61 189.06 604.82 191.88 606.94 200.97 C 596.28 201.06 585.64 201.03 574.99 200.96 C 572.30 193.70 579.99 194.20 578.18 187.26 C 586.40 188.68 577.69 175.73 584.80 175.57 C 584.87 172.93 584.99 167.65 585.06 165.01 Z" />
</g>
<g id="#cd301aff">
<path fill="#cd301a" opacity="1.00" d=" M 710.10 165.00 C 718.36 165.00 726.62 165.00 734.90 165.00 C 730.70 178.15 745.75 171.43 752.95 173.08 C 752.98 182.37 753.22 191.67 752.91 200.95 C 747.79 203.29 734.12 196.18 734.83 204.99 C 726.61 205.00 718.40 205.01 710.19 204.99 C 711.43 193.85 688.74 208.55 691.98 196.00 C 692.05 188.35 691.74 180.69 692.09 173.05 C 698.00 172.83 703.95 173.23 709.88 172.91 C 709.88 170.27 709.95 167.63 710.10 165.00 Z" />
<path fill="#cd301a" opacity="1.00" d=" M 1209.09 169.05 C 1215.00 168.99 1220.99 168.74 1226.95 169.09 C 1226.96 182.05 1227.19 195.03 1226.92 208.00 C 1220.94 208.00 1215.00 208.00 1209.06 208.00 C 1208.98 195.02 1208.82 182.03 1209.09 169.05 Z" />
</g>
<g id="#cf3119ff">
<path fill="#cf3119" opacity="1.00" d=" M 1298.08 169.00 C 1306.36 169.00 1314.63 169.00 1322.94 169.00 C 1322.99 185.66 1323.15 202.34 1322.92 219.00 C 1314.62 219.00 1306.35 219.00 1298.08 219.00 C 1297.97 202.34 1297.85 185.66 1298.08 169.00 Z" />
</g>
<g id="#d03218ff">
<path fill="#d03218" opacity="1.00" d=" M 967.08 173.00 C 976.35 173.00 985.63 173.00 994.92 173.00 C 997.77 178.41 989.66 194.98 998.83 193.94 C 996.41 186.80 1004.02 187.12 1002.19 180.27 C 1005.26 180.55 1006.51 179.03 1006.16 176.01 C 1016.69 175.99 1027.23 176.01 1037.78 175.97 C 1038.88 179.13 1037.36 180.56 1034.22 180.29 C 1035.65 187.75 1028.12 188.42 1030.82 196.68 C 1023.97 195.43 1030.05 205.06 1024.33 205.48 C 1024.81 209.40 1024.46 212.69 1020.25 212.32 C 1022.63 216.51 1014.53 226.34 1012.57 219.40 C 1007.02 220.42 1010.99 211.65 1004.01 214.91 C 999.31 214.36 1000.31 206.53 995.06 208.00 C 994.85 216.30 995.12 224.62 994.94 232.93 C 985.63 232.99 976.33 233.23 967.05 232.91 C 967.01 212.94 966.84 192.97 967.08 173.00 Z" />
</g>
<g id="#d03318ff">
<path fill="#d03318" opacity="1.00" d=" M 920.06 175.00 C 929.67 175.00 939.30 175.00 948.93 175.00 C 949.06 191.97 949.05 208.96 948.94 225.93 C 939.30 225.96 929.67 226.26 920.05 225.90 C 919.94 208.93 919.93 191.96 920.06 175.00 Z" />
</g>
<g id="#d13318ff">
<path fill="#d13318" opacity="1.00" d=" M 493.08 176.00 C 502.36 176.00 511.64 176.00 520.93 176.00 C 521.21 186.65 520.79 197.30 521.05 207.96 C 528.35 208.16 535.67 207.80 542.98 208.07 C 542.97 210.80 542.96 216.27 542.95 219.00 C 518.99 219.00 495.03 219.00 471.06 219.00 C 471.05 216.27 471.03 210.79 471.02 208.06 C 478.32 207.83 485.64 208.19 492.95 207.93 C 493.21 197.29 492.75 186.64 493.08 176.00 Z" />
<path fill="#d13318" opacity="1.00" d=" M 1138.39 180.15 C 1141.69 179.19 1140.86 184.17 1144.65 183.36 C 1143.69 189.43 1152.05 184.40 1152.47 189.56 C 1157.28 189.99 1157.09 197.15 1162.56 197.45 C 1164.38 202.67 1168.19 205.43 1172.73 208.48 C 1174.42 211.74 1170.28 211.99 1169.43 214.46 C 1165.26 214.91 1165.39 220.06 1161.75 221.68 C 1156.81 222.67 1157.80 231.04 1152.31 229.90 C 1150.45 221.72 1141.89 220.29 1137.84 213.15 C 1133.16 211.83 1132.90 205.20 1127.41 204.57 C 1127.97 200.70 1122.39 201.37 1124.28 197.48 C 1129.05 194.19 1133.76 191.18 1134.01 184.99 C 1133.58 181.72 1138.98 184.05 1138.39 180.15 Z" />
</g>
<g id="#d03219ff">
<path fill="#d03219" opacity="1.00" d=" M 1266.08 176.00 C 1273.35 176.00 1280.64 176.00 1287.94 176.00 C 1287.97 191.33 1288.18 206.67 1287.92 222.00 C 1280.61 222.00 1273.33 222.00 1266.06 222.00 C 1266.01 206.67 1265.81 191.33 1266.08 176.00 Z" />
<path fill="#d03219" opacity="1.00" d=" M 1177.06 177.00 C 1184.01 177.00 1190.95 177.00 1197.94 177.00 C 1198.06 191.00 1198.06 205.00 1197.94 219.00 C 1190.95 218.99 1184.02 219.00 1177.06 219.00 C 1176.92 205.00 1176.92 191.00 1177.06 177.00 Z" />
<path fill="#d03219" opacity="1.00" d=" M 1234.06 177.00 C 1242.33 177.00 1250.61 177.00 1258.91 177.00 C 1259.09 190.99 1259.05 205.00 1258.94 219.00 C 1250.62 219.00 1242.34 219.00 1234.06 219.00 C 1233.92 205.00 1233.92 191.00 1234.06 177.00 Z" />
<path fill="#d03219" opacity="1.00" d=" M 47.18 183.02 C 107.77 182.98 168.35 183.01 228.94 183.00 C 228.95 185.73 228.97 191.20 228.98 193.94 C 206.34 194.21 183.69 193.77 161.05 194.08 C 160.73 202.38 161.34 210.70 160.87 219.00 C 150.28 219.00 139.69 218.99 129.10 219.00 C 128.71 210.69 129.31 202.36 128.91 194.05 C 111.33 194.01 93.73 193.84 76.16 194.10 C 76.80 198.14 76.67 201.77 72.22 201.31 C 75.82 209.30 67.48 205.97 67.55 211.50 C 62.80 212.05 67.51 219.69 62.24 219.30 C 56.52 221.30 60.88 230.20 54.55 230.51 C 51.80 233.15 50.57 235.88 50.83 239.93 C 45.93 241.57 46.94 236.84 46.84 233.26 C 40.39 234.62 45.80 225.60 40.23 225.55 C 38.46 222.91 42.89 214.83 38.02 214.97 C 33.27 215.45 38.68 206.89 33.13 207.56 C 29.65 201.11 36.40 202.18 36.41 197.43 C 44.16 197.36 39.92 186.17 46.74 186.72 C 46.90 185.49 47.05 184.25 47.18 183.02 Z" />
</g>
<g id="#d23418ff">
<path fill="#d23418" opacity="1.00" d=" M 1052.48 180.28 C 1057.15 178.31 1055.79 186.30 1061.89 183.10 C 1062.76 187.42 1069.76 188.11 1070.45 193.68 C 1076.68 191.03 1075.93 197.33 1080.59 197.40 C 1081.75 204.15 1089.68 205.04 1091.39 211.66 C 1096.00 210.98 1096.00 216.02 1091.39 215.34 C 1090.88 220.89 1084.10 221.24 1082.85 225.82 C 1080.90 228.89 1078.01 230.40 1075.87 232.90 C 1070.37 230.85 1068.61 223.62 1063.17 220.86 C 1062.30 216.85 1054.94 221.45 1055.81 216.16 C 1049.11 213.12 1047.12 203.44 1038.04 204.82 C 1037.82 201.19 1036.58 195.90 1041.76 196.69 C 1040.23 187.90 1050.09 187.25 1052.48 180.28 Z" />
</g>
<g id="#d33517ff">
<path fill="#d33517" opacity="1.00" d=" M 363.98 190.03 C 375.99 189.95 388.00 190.07 400.01 189.96 C 404.21 189.12 407.85 189.15 407.30 193.78 C 414.87 192.78 416.13 199.83 424.76 197.13 C 423.71 203.75 431.91 199.95 435.77 201.12 C 435.05 208.55 444.82 203.63 449.62 205.21 C 449.68 210.67 459.43 205.05 456.92 211.75 C 450.37 210.30 455.82 219.37 450.23 219.45 C 450.14 222.02 449.95 227.17 449.86 229.75 C 447.40 230.43 442.88 229.27 445.91 234.99 C 445.11 238.84 436.41 243.42 435.56 237.27 C 431.95 237.10 426.92 238.23 427.70 233.18 C 420.26 234.91 417.91 229.54 411.27 229.81 C 411.93 225.14 407.80 225.93 404.28 225.82 C 403.86 220.60 397.71 219.39 393.30 218.79 C 392.83 213.61 386.73 212.42 382.36 211.76 C 381.86 208.20 378.83 205.35 375.39 204.58 C 375.36 201.95 374.05 200.63 371.42 200.61 C 371.46 194.64 362.75 195.52 363.98 190.03 Z" />
</g>
<g id="#d43517ff">
<path fill="#d43517" opacity="1.00" d=" M 293.30 197.22 C 300.36 200.59 298.52 192.52 304.00 193.96 C 317.00 194.07 330.01 193.93 343.02 194.04 C 343.86 196.91 341.61 197.16 339.36 197.32 C 336.22 206.39 325.54 209.76 321.57 218.71 C 316.15 217.37 311.69 220.83 310.57 225.71 C 306.60 225.13 303.31 225.52 303.68 229.76 C 296.95 228.44 296.05 234.59 289.27 233.18 C 290.58 239.59 281.64 234.21 281.54 239.75 C 278.63 241.19 271.01 237.36 271.86 242.97 C 271.79 246.20 266.36 243.42 264.18 243.93 C 266.58 236.80 258.97 237.11 260.81 230.27 C 253.95 231.61 260.06 221.91 254.33 221.52 C 258.21 213.42 249.05 217.25 250.00 212.10 C 252.58 210.20 261.23 215.09 261.02 210.01 C 261.01 204.12 272.62 212.03 272.44 205.23 C 276.14 204.32 283.18 207.21 282.30 201.14 C 286.15 200.06 294.29 203.81 293.30 197.22 Z" />
</g>
<g id="#d53616ff">
<path fill="#d53616" opacity="1.00" d=" M 343.27 201.09 C 348.70 198.98 343.00 209.81 351.04 205.00 C 353.10 204.61 354.21 205.67 354.49 207.66 C 362.94 204.48 360.71 216.99 369.02 214.98 C 373.51 214.22 368.03 223.88 376.02 218.97 C 378.30 218.59 379.71 219.29 378.91 221.75 C 376.07 221.56 374.51 222.72 374.66 225.65 C 369.77 225.58 370.25 232.62 365.18 233.20 C 363.38 235.28 362.01 239.21 359.00 240.00 C 356.54 238.96 354.10 236.28 353.58 233.29 C 348.16 234.63 343.69 231.17 342.57 226.29 C 339.88 225.84 335.28 227.26 335.81 223.16 C 333.85 221.13 327.92 219.68 329.28 215.48 C 333.84 212.86 336.37 209.72 339.57 205.54 C 342.31 205.37 343.37 203.76 343.27 201.09 Z" />
<path fill="#d53616" opacity="1.00" d=" M 570.80 207.70 C 570.12 203.58 570.41 199.81 574.99 200.96 C 585.64 201.03 596.28 201.06 606.94 200.97 C 610.23 200.96 613.62 200.85 616.94 201.09 C 617.07 205.72 616.82 210.37 617.09 215.01 C 621.79 215.63 621.97 210.03 627.73 211.81 C 626.38 205.34 635.62 210.88 635.35 205.15 C 641.78 202.59 636.15 212.41 641.66 212.49 C 638.44 220.98 651.14 218.72 648.92 227.05 C 648.24 230.03 650.62 230.15 652.93 230.28 C 652.95 231.95 652.98 235.29 652.99 236.96 C 643.64 237.04 634.31 236.95 624.98 237.04 C 619.89 238.48 620.93 233.72 620.88 230.02 C 618.42 229.54 616.42 230.06 616.77 232.96 C 596.83 233.00 576.90 233.06 556.97 232.96 C 557.96 229.27 561.00 227.38 560.18 222.27 C 566.54 223.56 561.28 214.81 566.67 214.51 C 566.08 210.53 566.58 207.30 570.80 207.70 Z" />
</g>
<g id="#d73815ff">
<path fill="#d73815" opacity="1.00" d=" M 710.19 204.99 C 718.40 205.01 726.61 205.00 734.83 204.99 C 735.08 220.31 735.15 235.67 734.91 251.00 C 726.61 251.00 718.34 251.00 710.06 251.00 C 710.13 235.67 709.60 220.30 710.19 204.99 Z" />
</g>
<g id="#d43616ff">
<path fill="#d43616" opacity="1.00" d=" M 760.10 205.05 C 800.38 204.96 840.67 204.96 880.95 205.06 C 880.96 213.36 881.24 221.69 880.91 230.00 C 872.70 230.01 864.51 229.97 856.32 230.02 C 855.75 227.47 856.59 222.70 850.97 225.99 C 830.06 226.12 809.12 225.73 788.23 226.14 C 788.00 227.42 787.82 228.72 787.69 230.02 C 778.47 229.99 769.27 229.99 760.07 230.00 C 759.99 221.69 759.72 213.36 760.10 205.05 Z" />
</g>
<g id="#d83915ff">
<path fill="#d83915" opacity="1.00" d=" M 1209.06 208.00 C 1215.00 208.00 1220.94 208.00 1226.92 208.00 C 1227.09 223.30 1227.03 238.61 1226.95 253.91 C 1225.61 254.01 1224.28 254.05 1222.97 254.04 C 1217.30 253.98 1211.65 254.01 1206.03 253.96 C 1208.52 247.17 1201.04 232.74 1208.83 229.58 C 1209.20 222.38 1208.79 215.19 1209.06 208.00 Z" />
</g>
<g id="#da3a13ff">
<path fill="#da3a13" opacity="1.00" d=" M 129.10 219.00 C 139.69 218.99 150.28 219.00 160.87 219.00 C 160.94 220.74 161.07 224.21 161.13 225.95 C 181.40 226.17 201.68 225.82 221.95 226.06 C 221.99 235.35 222.23 244.66 221.91 253.95 C 201.62 254.17 181.33 253.82 161.05 254.05 C 160.88 259.02 161.18 264.02 160.92 269.00 C 150.30 269.00 139.68 269.00 129.06 269.00 C 128.85 264.01 129.21 259.03 128.90 254.05 C 108.62 253.82 88.33 254.18 68.05 253.94 C 68.01 244.65 67.77 235.34 68.09 226.05 C 88.35 225.82 108.61 226.18 128.87 225.94 C 128.93 224.21 129.04 220.74 129.10 219.00 Z" />
<path fill="#da3a13" opacity="1.00" d=" M 1177.06 219.00 C 1184.02 219.00 1190.95 218.99 1197.94 219.00 C 1198.06 234.31 1198.05 249.62 1197.94 264.94 C 1190.96 265.08 1183.99 265.12 1177.05 264.94 C 1176.95 249.63 1176.92 234.31 1177.06 219.00 Z" />
<path fill="#da3a13" opacity="1.00" d=" M 1234.06 219.00 C 1242.34 219.00 1250.62 219.00 1258.94 219.00 C 1259.06 234.31 1259.05 249.62 1258.94 264.93 C 1250.63 265.09 1242.34 265.09 1234.06 264.93 C 1233.93 249.62 1233.92 234.31 1234.06 219.00 Z" />
</g>
<g id="#d83914ff">
<path fill="#d83914" opacity="1.00" d=" M 471.06 219.00 C 495.03 219.00 518.99 219.00 542.95 219.00 C 543.05 224.98 543.18 230.97 542.93 236.95 C 535.63 237.16 528.33 236.80 521.05 237.07 C 520.87 242.70 521.16 248.35 520.93 254.00 C 511.64 254.00 502.36 254.00 493.08 254.00 C 492.88 248.35 493.10 242.69 492.94 237.04 C 485.64 236.84 478.33 237.19 471.05 236.93 C 470.98 230.95 470.76 224.97 471.06 219.00 Z" />
</g>
<g id="#da3b13ff">
<path fill="#da3b13" opacity="1.00" d=" M 1298.08 219.00 C 1306.35 219.00 1314.62 219.00 1322.92 219.00 C 1323.01 235.66 1323.14 252.34 1322.92 269.00 C 1314.61 268.99 1306.34 269.00 1298.07 269.00 C 1297.98 252.34 1297.85 235.66 1298.08 219.00 Z" />
</g>
<g id="#dc3c12ff">
<path fill="#dc3c12" opacity="1.00" d=" M 1266.06 222.00 C 1273.33 222.00 1280.61 222.00 1287.92 222.00 C 1288.08 242.31 1288.03 262.62 1287.94 282.93 C 1280.62 283.04 1273.32 283.19 1266.05 282.93 C 1265.95 262.62 1265.93 242.31 1266.06 222.00 Z" />
<path fill="#dc3c12" opacity="1.00" d=" M 548.85 243.82 C 553.27 241.26 550.20 231.68 556.97 232.96 C 576.90 233.06 596.83 233.00 616.77 232.96 C 617.12 244.96 617.17 256.99 616.92 269.00 C 607.63 269.00 598.35 269.00 589.08 269.00 C 588.77 258.34 589.20 247.68 588.95 237.02 C 582.23 234.63 587.85 244.26 582.34 244.49 C 585.55 252.97 572.88 250.71 575.07 259.06 C 574.92 264.23 566.07 263.00 566.83 268.99 C 556.21 269.01 545.60 268.96 534.99 269.04 C 531.44 270.75 530.65 265.08 533.86 264.82 C 537.32 264.49 532.67 257.34 536.98 257.98 C 540.21 258.61 537.84 253.62 540.97 253.93 C 546.99 252.98 543.32 243.88 548.85 243.82 Z" />
<path fill="#dc3c12" opacity="1.00" d=" M 928.10 237.05 C 982.38 236.99 1036.67 236.92 1090.95 237.08 C 1090.95 248.72 1091.22 260.37 1090.92 272.00 C 1081.61 272.00 1072.33 272.00 1063.05 272.00 C 1062.92 268.67 1063.17 265.37 1062.86 262.07 C 1056.92 261.96 1051.00 261.66 1045.11 262.12 C 1044.91 265.39 1045.01 268.71 1044.96 272.00 C 1035.64 272.00 1026.34 272.00 1017.05 272.00 C 1016.93 268.66 1017.17 265.36 1016.86 262.05 C 1013.18 262.05 1005.83 262.06 1002.15 262.06 C 1001.93 265.35 1002.01 268.69 1001.96 272.00 C 992.64 272.00 983.34 272.00 974.05 272.00 C 973.93 268.67 974.17 265.37 973.86 262.07 C 967.93 261.96 962.00 261.66 956.11 262.12 C 955.92 265.39 956.00 268.71 955.96 272.00 C 946.66 272.00 937.36 272.00 928.08 272.00 C 928.00 260.35 927.76 248.69 928.10 237.05 Z" />
</g>
<g id="#db3c13ff">
<path fill="#db3c13" opacity="1.00" d=" M 760.07 230.00 C 769.27 229.99 778.47 229.99 787.69 230.02 C 787.83 230.72 788.13 232.13 788.28 232.84 C 810.71 233.19 833.19 233.08 855.64 232.84 C 855.81 232.14 856.15 230.73 856.32 230.02 C 864.51 229.97 872.70 230.01 880.91 230.00 C 881.04 242.99 881.13 256.00 880.93 269.00 C 840.64 269.00 800.36 268.99 760.08 269.00 C 759.96 256.00 759.85 242.99 760.07 230.00 M 788.03 251.05 C 788.03 253.76 788.03 259.20 788.03 261.92 C 810.66 262.12 833.32 262.00 855.97 261.95 C 855.97 259.24 855.97 253.80 855.97 251.08 C 833.33 250.88 810.67 251.00 788.03 251.05 Z" />
</g>
<g id="#dd3d12ff">
<path fill="#dd3d12" opacity="1.00" d=" M 343.16 237.02 C 349.90 233.48 348.71 240.50 353.65 240.36 C 353.23 244.82 357.20 243.99 360.59 244.26 C 360.49 249.21 367.91 244.63 368.09 248.95 C 369.55 252.87 373.67 254.53 377.86 254.11 C 380.51 256.53 381.05 262.37 385.92 262.27 C 386.89 265.05 384.45 265.08 382.38 265.34 C 381.76 268.82 378.82 271.68 375.38 272.41 C 374.85 273.89 375.30 276.34 373.00 275.99 C 368.16 275.21 373.66 284.02 369.10 282.97 C 367.29 283.16 368.33 280.31 367.70 279.23 C 358.47 281.11 357.97 270.73 350.38 268.59 C 351.21 262.58 342.92 267.59 342.54 262.43 C 338.13 261.84 337.41 256.60 334.85 254.18 C 330.37 254.67 331.79 249.77 335.62 250.66 C 336.26 244.08 345.97 244.77 343.16 237.02 Z" />
<path fill="#dd3d12" opacity="1.00" d=" M 624.98 237.04 C 634.31 236.95 643.64 237.04 652.99 236.96 C 659.59 235.51 655.22 245.16 661.23 246.71 C 666.49 246.45 661.42 254.53 666.70 254.47 C 666.89 258.01 665.78 263.05 670.77 262.31 C 665.88 268.28 678.18 269.32 672.17 272.17 C 670.06 276.41 665.65 279.26 660.28 279.20 C 660.93 283.89 656.75 283.04 653.24 283.16 C 654.56 288.09 647.86 288.40 648.60 283.46 C 643.70 282.68 648.62 274.37 642.24 275.68 C 644.37 268.78 636.98 269.00 638.81 262.27 C 631.95 263.61 638.06 253.92 632.33 253.52 C 632.84 249.56 632.45 246.31 628.23 246.68 C 631.69 239.83 624.31 241.62 624.98 237.04 Z" />
</g>
<g id="#e1400fff">
<path fill="#e1400f" opacity="1.00" d=" M 1149.25 240.07 C 1154.66 238.01 1149.06 248.62 1156.99 244.06 C 1160.97 243.12 1157.22 251.66 1164.03 246.95 C 1168.54 245.18 1170.23 247.11 1170.37 250.58 C 1174.74 250.63 1174.44 258.85 1170.17 258.41 C 1168.36 262.61 1173.58 273.03 1166.12 272.28 C 1164.10 276.57 1169.53 286.30 1163.19 287.45 C 1161.36 291.64 1166.57 302.05 1159.11 301.27 C 1157.29 305.30 1162.23 314.46 1156.18 315.43 C 1155.88 319.94 1156.18 324.48 1155.89 329.00 C 1152.93 328.96 1148.54 330.34 1148.57 326.21 C 1144.61 325.15 1136.62 328.74 1137.73 322.13 C 1131.72 322.30 1123.70 324.11 1127.08 315.23 C 1134.54 315.98 1129.66 306.17 1131.19 301.36 C 1137.10 300.34 1132.76 291.81 1134.13 287.24 C 1141.94 288.04 1136.17 276.88 1138.20 272.45 C 1144.06 271.23 1139.78 262.85 1141.13 258.24 C 1149.31 259.28 1142.16 247.07 1146.04 244.11 C 1148.95 244.63 1149.14 242.37 1149.25 240.07 Z" />
<path fill="#e1400f" opacity="1.00" d=" M 493.08 254.00 C 502.36 254.00 511.64 254.00 520.93 254.00 C 521.14 261.31 520.85 268.63 521.05 275.95 C 525.82 273.86 540.35 280.74 538.93 272.22 C 536.58 272.14 534.02 272.13 534.99 269.04 C 545.60 268.96 556.21 269.01 566.83 268.99 C 568.13 272.68 562.86 271.71 563.64 275.65 C 557.51 274.67 562.66 283.21 557.37 283.42 C 556.31 291.66 550.32 282.98 549.64 279.11 C 537.01 275.06 545.43 292.69 543.00 298.98 C 543.99 304.29 533.90 297.80 534.57 303.83 C 526.47 304.21 518.37 303.83 510.28 304.09 C 510.09 305.36 509.90 306.63 509.72 307.91 C 500.55 308.29 491.38 307.66 482.23 308.11 C 484.00 314.27 470.26 314.64 470.79 309.18 C 464.85 305.34 469.37 294.63 467.97 288.00 C 463.98 276.11 483.61 289.16 482.28 279.13 C 484.95 279.07 490.28 278.96 492.95 278.91 C 493.23 270.60 492.72 262.30 493.08 254.00 Z" />
</g>
<g id="#df3f10ff">
<path fill="#df3f10" opacity="1.00" d=" M 425.44 244.13 C 428.05 243.96 432.37 242.81 432.43 246.60 C 438.46 245.82 433.33 254.28 438.69 254.47 C 435.01 263.62 447.56 261.56 445.98 270.02 C 445.25 274.45 454.68 269.17 450.06 276.99 C 452.13 279.58 453.46 282.39 453.17 286.75 C 457.95 285.98 457.39 290.14 456.95 293.83 C 449.81 291.40 450.12 299.02 443.28 297.19 C 444.61 303.65 435.38 298.12 435.65 303.85 C 429.36 306.51 434.69 296.88 430.02 296.98 C 425.30 297.46 430.57 289.20 425.33 289.52 C 425.81 285.55 425.52 282.18 421.22 282.88 C 420.99 278.47 416.46 277.60 417.80 272.28 C 411.65 272.95 415.83 264.97 410.86 263.12 C 406.56 262.20 406.41 258.46 407.12 254.30 C 411.49 253.89 412.44 249.52 417.72 250.80 C 416.42 244.35 425.56 249.85 425.44 244.13 Z" />
</g>
<g id="#e0400fff">
<path fill="#e0400f" opacity="1.00" d=" M 268.15 251.01 C 270.96 250.97 275.51 249.70 275.43 253.79 C 279.29 254.85 287.32 251.26 286.29 257.81 C 295.38 254.76 292.88 263.34 292.93 268.77 C 285.07 267.21 292.68 278.89 286.24 279.47 C 285.17 283.36 288.71 291.35 282.15 290.28 C 284.41 298.55 278.82 300.84 278.81 307.73 C 275.79 307.48 274.50 308.95 274.75 311.92 C 269.26 314.05 275.04 303.11 266.98 308.02 C 262.09 309.91 260.76 307.81 260.70 304.23 C 258.09 303.73 253.69 305.23 253.58 301.37 C 248.60 302.19 248.89 295.47 253.84 296.71 C 252.28 289.01 257.75 286.41 257.18 279.26 C 264.89 280.63 257.32 269.08 263.76 268.53 C 264.83 264.65 261.28 256.69 267.81 257.71 C 267.89 256.04 268.06 252.69 268.15 251.01 Z" />
<path fill="#e0400f" opacity="1.00" d=" M 710.06 251.00 C 718.34 251.00 726.61 251.00 734.91 251.00 C 735.10 255.65 734.80 260.33 735.09 264.99 C 738.39 263.71 746.48 268.01 746.40 262.13 C 748.78 262.10 753.55 262.03 755.93 262.00 C 755.87 271.19 756.45 280.44 755.79 289.61 C 753.24 289.67 752.89 291.71 752.64 293.81 C 749.32 295.29 741.72 291.18 741.57 296.79 C 737.64 297.84 729.67 294.26 730.71 300.83 C 722.00 299.36 719.20 306.08 710.24 304.13 C 711.97 312.23 699.14 304.04 698.98 310.00 C 699.61 313.95 694.54 311.71 692.05 311.97 C 691.79 304.76 692.29 297.53 691.85 290.34 C 686.12 290.33 690.23 282.43 689.04 279.17 C 691.71 278.74 696.46 280.33 696.45 276.23 C 699.57 274.68 707.67 278.91 707.21 273.18 C 713.30 269.05 708.34 257.90 710.06 251.00 Z" />
</g>
<g id="#e2420eff">
<path fill="#e2420e" opacity="1.00" d=" M 300.06 251.05 C 308.34 250.90 316.64 250.90 324.94 251.07 C 325.33 265.26 324.58 279.49 325.16 293.67 C 328.83 294.11 331.83 297.23 332.40 300.84 C 347.25 301.21 362.12 300.93 376.98 301.00 C 384.60 305.59 379.73 296.77 383.97 296.93 C 390.96 294.30 388.64 285.58 389.14 279.30 C 395.85 280.90 389.89 270.46 395.76 272.08 C 394.25 279.06 404.05 272.92 404.48 278.67 C 408.55 278.03 411.74 278.64 411.29 282.90 C 414.57 283.03 417.92 282.96 421.22 282.88 C 420.80 285.47 422.60 289.97 419.09 290.17 C 415.16 291.43 421.47 301.30 416.02 301.03 C 411.29 300.50 416.57 308.79 411.34 308.49 C 411.75 312.26 411.53 315.62 407.39 315.35 C 406.27 322.00 399.05 322.80 393.24 322.14 C 392.61 324.69 393.79 329.26 387.98 326.01 C 366.33 326.00 344.67 326.01 323.02 326.00 C 314.07 331.12 321.91 317.13 313.01 321.93 C 307.71 320.37 306.47 312.88 300.16 311.60 C 299.82 291.42 300.01 271.23 300.06 251.05 Z" />
<path fill="#e2420e" opacity="1.00" d=" M 589.08 269.00 C 598.35 269.00 607.63 269.00 616.92 269.00 C 617.02 288.97 617.14 308.97 616.90 328.94 C 607.61 328.99 598.32 329.23 589.05 328.91 C 589.01 308.94 588.85 288.97 589.08 269.00 Z" />
<path fill="#e2420e" opacity="1.00" d=" M 760.08 269.00 C 800.36 268.99 840.64 269.00 880.93 269.00 C 880.94 273.53 881.36 278.13 880.84 282.67 C 875.42 282.62 878.10 290.90 883.85 287.13 C 885.49 290.97 890.60 289.90 894.93 290.16 C 894.90 295.97 895.44 301.84 894.81 307.63 C 889.23 307.81 893.44 315.46 891.82 318.68 C 888.70 318.65 887.11 321.33 885.30 323.23 C 885.30 330.07 873.48 321.83 873.58 328.83 C 862.12 329.14 850.66 329.13 839.22 328.87 C 835.89 327.22 835.73 321.99 831.57 321.45 C 823.11 311.71 830.51 295.32 827.95 283.03 C 824.27 283.04 816.91 283.06 813.24 283.07 C 811.26 284.32 814.94 290.27 811.09 290.17 C 807.23 291.61 813.34 300.94 808.05 301.10 C 803.52 301.96 804.09 308.64 799.24 308.36 C 801.25 315.04 797.23 315.45 792.28 315.18 C 792.52 320.41 784.64 319.92 784.55 325.69 C 777.12 324.96 775.75 331.76 767.23 329.13 C 769.14 335.52 755.90 334.80 759.96 328.02 C 760.64 325.54 757.90 326.16 756.39 325.65 C 755.73 322.15 752.78 319.27 749.31 318.56 C 752.54 311.63 744.53 313.48 746.00 308.17 C 755.44 312.85 750.08 300.89 758.02 304.01 C 765.33 307.58 762.69 297.82 769.86 300.88 C 772.35 295.53 778.45 293.05 781.54 287.50 C 784.39 287.42 785.70 285.93 785.01 283.06 C 776.68 282.86 768.36 283.13 760.06 282.94 C 759.97 278.29 759.78 273.64 760.08 269.00 M 853.08 283.05 C 853.14 290.40 850.84 299.83 857.22 303.91 C 863.37 305.45 871.78 302.66 870.00 295.03 C 865.07 287.30 873.71 291.97 873.99 288.90 C 877.22 276.80 859.23 285.52 853.08 283.05 Z" />
</g>
<g id="#e2410eff">
<path fill="#e2410e" opacity="1.00" d=" M 1198.18 269.26 C 1208.02 270.53 1195.84 251.63 1206.03 253.96 C 1211.65 254.01 1217.30 253.98 1222.97 254.04 C 1222.99 259.90 1223.28 265.80 1222.84 271.66 C 1218.57 271.49 1220.03 276.00 1220.02 279.00 C 1222.51 278.81 1227.43 280.40 1227.43 276.39 C 1230.30 276.45 1231.40 274.85 1231.26 272.08 C 1234.03 271.11 1234.07 273.54 1234.34 275.62 C 1239.95 275.66 1239.65 283.13 1244.57 283.40 C 1245.33 286.84 1248.21 289.73 1251.68 290.45 C 1250.46 301.75 1265.14 302.20 1266.00 311.81 C 1256.51 309.61 1256.06 320.31 1248.34 322.38 C 1249.01 327.00 1243.97 327.00 1244.66 322.38 C 1236.89 322.49 1241.03 311.38 1234.37 311.66 C 1234.97 307.29 1228.49 308.26 1231.00 302.98 C 1231.04 299.79 1225.60 301.83 1226.62 297.41 C 1221.76 296.55 1219.28 291.76 1219.83 287.06 C 1217.33 287.07 1212.44 285.82 1215.91 291.97 C 1215.03 296.93 1206.28 296.10 1208.85 302.83 C 1204.55 307.49 1201.27 311.26 1195.51 315.63 C 1197.12 322.12 1193.03 322.38 1188.28 322.18 C 1188.06 326.21 1184.05 327.67 1181.18 329.04 C 1184.39 320.11 1173.76 322.04 1172.44 315.58 C 1170.52 312.16 1164.76 312.88 1166.08 308.28 C 1171.39 308.65 1170.84 300.73 1176.60 300.57 C 1176.90 295.70 1184.12 295.94 1184.47 290.46 C 1190.02 290.13 1189.67 282.68 1194.73 282.63 C 1192.70 275.78 1199.99 275.97 1198.18 269.26 Z" />
</g>
<g id="#e3420eff">
<path fill="#e3420e" opacity="1.00" d=" M 129.06 269.00 C 139.68 269.00 150.30 269.00 160.92 269.00 C 161.13 275.97 160.88 282.95 161.06 289.94 C 186.02 290.17 210.98 289.83 235.93 290.06 C 235.96 299.68 236.26 309.33 235.90 318.95 C 170.62 319.04 105.33 319.04 40.05 318.94 C 40.04 309.31 39.73 299.67 40.10 290.05 C 69.71 289.81 99.34 290.23 128.95 289.90 C 129.11 282.93 128.87 275.96 129.06 269.00 Z" />
<path fill="#e3420e" opacity="1.00" d=" M 1298.07 269.00 C 1306.34 269.00 1314.61 268.99 1322.92 269.00 C 1322.97 283.20 1323.25 297.43 1322.81 311.63 C 1318.86 311.70 1320.25 315.83 1319.78 318.67 C 1314.29 320.00 1311.79 324.28 1308.42 328.68 C 1296.64 329.35 1284.83 328.96 1273.06 328.94 C 1271.23 324.87 1276.31 315.55 1270.17 314.57 C 1269.94 310.06 1269.76 305.55 1270.09 301.05 C 1278.26 300.85 1286.45 301.18 1294.65 300.87 C 1294.88 298.74 1295.24 296.68 1297.78 296.52 C 1298.35 287.35 1297.69 278.16 1298.07 269.00 Z" />
<path fill="#e3420e" opacity="1.00" d=" M 928.08 272.00 C 937.36 272.00 946.66 272.00 955.96 272.00 C 956.07 280.29 955.81 288.59 956.08 296.89 C 961.98 297.33 967.92 297.02 973.87 296.93 C 974.38 288.63 973.80 280.30 974.05 272.00 C 983.34 272.00 992.64 272.00 1001.96 272.00 C 1002.07 280.31 1001.81 288.63 1002.10 296.94 C 1005.79 296.95 1013.17 296.95 1016.87 296.95 C 1017.37 288.64 1016.80 280.31 1017.05 272.00 C 1026.34 272.00 1035.64 272.00 1044.96 272.00 C 1045.07 280.29 1044.81 288.59 1045.08 296.89 C 1050.98 297.33 1056.92 297.02 1062.87 296.93 C 1063.38 288.63 1062.79 280.30 1063.05 272.00 C 1072.33 272.00 1081.61 272.00 1090.92 272.00 C 1091.26 280.31 1090.68 288.64 1091.09 296.95 C 1098.36 297.16 1105.65 296.80 1112.95 297.07 C 1113.08 305.35 1113.08 313.64 1112.93 321.94 C 1043.97 322.04 975.01 322.05 906.05 321.93 C 905.89 313.64 905.89 305.34 906.07 297.06 C 913.35 296.83 920.65 297.19 927.95 296.93 C 928.22 288.62 927.72 280.31 928.08 272.00 Z" />
</g>
</svg>
