<?xml version="1.0" encoding="UTF-8" ?>
<!DOCTYPE svg PUBLIC "-//W3C//DTD SVG 1.1//EN" "http://www.w3.org/Graphics/SVG/1.1/DTD/svg11.dtd">
<svg width="30pt" height="30pt" viewBox="0 0 30 30" version="1.1" xmlns="http://www.w3.org/2000/svg">
<g id="#fcff00ff">
<path fill="#fcff00" opacity="1.00" d=" M 14.06 4.15 C 15.55 3.62 16.68 4.52 17.32 5.81 C 20.40 11.02 23.47 16.25 26.43 21.53 C 27.08 22.47 27.46 24.61 25.88 24.82 C 18.92 25.03 11.95 24.88 4.99 24.89 C 3.04 25.24 2.52 22.82 3.61 21.62 C 7.08 15.79 10.12 9.66 14.06 4.15 M 13.37 10.95 C 13.28 13.49 14.00 15.97 14.76 18.37 C 16.96 16.63 16.40 13.53 16.73 11.08 C 16.99 8.95 13.21 8.83 13.37 10.95 M 13.66 22.29 C 14.51 22.29 15.36 22.29 16.21 22.30 C 16.44 21.73 16.88 20.59 17.10 20.01 C 16.58 19.67 15.54 18.99 15.02 18.65 C 13.02 19.07 13.21 20.75 13.66 22.29 Z" />
</g>
<g id="#050500ff">
<path fill="#050500" opacity="1.00" d=" M 13.37 10.95 C 13.21 8.83 16.99 8.95 16.73 11.08 C 16.40 13.53 16.96 16.63 14.76 18.37 C 14.00 15.97 13.28 13.49 13.37 10.95 Z" />
<path fill="#050500" opacity="1.00" d=" M 13.66 22.29 C 13.21 20.75 13.02 19.07 15.02 18.65 C 15.54 18.99 16.58 19.67 17.10 20.01 C 16.88 20.59 16.44 21.73 16.21 22.30 C 15.36 22.29 14.51 22.29 13.66 22.29 Z" />
</g>
</svg>
