<?xml version="1.0" encoding="UTF-8" ?>
<!DOCTYPE svg PUBLIC "-//W3C//DTD SVG 1.1//EN" "http://www.w3.org/Graphics/SVG/1.1/DTD/svg11.dtd">
<svg width="30pt" height="30pt" viewBox="0 0 30 30" version="1.1" xmlns="http://www.w3.org/2000/svg">
<g id="#47941cff">
<path fill="#47941c" opacity="1.00" d=" M 5.14 12.10 C 6.40 7.79 10.66 4.64 15.18 4.80 C 14.93 8.24 14.85 11.68 14.99 15.12 C 12.17 17.49 9.42 19.93 6.66 22.37 C 4.75 19.28 4.65 15.59 5.14 12.10 Z" />
<path fill="#47941c" opacity="1.00" d=" M 15.99 8.84 C 15.42 7.21 20.40 3.36 19.68 6.57 C 18.70 7.53 17.47 8.94 15.99 8.84 Z" />
<path fill="#47941c" opacity="1.00" d=" M 19.68 6.57 C 20.45 6.56 21.99 6.55 22.76 6.54 C 21.09 8.21 19.51 9.98 18.22 11.97 C 17.47 12.00 15.97 12.06 15.22 12.08 C 16.91 10.42 18.68 8.85 20.48 7.32 L 19.68 6.57 Z" />
<path fill="#47941c" opacity="1.00" d=" M 23.62 8.32 C 24.31 9.23 22.75 10.37 22.56 11.32 C 22.44 11.44 22.19 11.66 22.07 11.77 C 21.56 11.80 20.55 11.86 20.04 11.89 C 19.98 11.70 19.84 11.30 19.78 11.10 C 21.06 10.19 22.18 8.96 23.62 8.32 Z" />
<path fill="#47941c" opacity="1.00" d=" M 22.56 11.32 C 23.40 10.98 25.08 10.29 25.91 9.94 C 24.52 12.60 22.11 14.46 19.46 15.75 C 20.31 14.41 21.22 13.11 22.07 11.77 C 22.19 11.66 22.44 11.44 22.56 11.32 Z" />
<path fill="#47941c" opacity="1.00" d=" M 18.22 11.97 C 18.68 11.95 19.59 11.91 20.04 11.89 C 19.74 13.37 17.91 14.92 16.40 15.00 C 16.26 13.76 17.48 12.81 18.22 11.97 Z" />
<path fill="#47941c" opacity="1.00" d=" M 23.98 14.84 C 23.62 13.64 25.43 12.28 26.51 12.90 C 26.91 14.12 25.06 15.49 23.98 14.84 Z" />
<path fill="#47941c" opacity="1.00" d=" M 15.50 16.20 C 19.29 15.99 23.09 15.97 26.88 16.12 C 25.87 20.41 23.24 24.55 18.88 25.98 C 14.82 27.69 10.59 25.65 7.37 23.17 C 10.17 20.96 12.90 18.65 15.50 16.20 Z" />
</g>
</svg>
