<?xml version="1.0" encoding="UTF-8" ?>
<!DOCTYPE svg PUBLIC "-//W3C//DTD SVG 1.1//EN" "http://www.w3.org/Graphics/SVG/1.1/DTD/svg11.dtd">
<svg width="30pt" height="30pt" viewBox="0 0 30 30" version="1.1" xmlns="http://www.w3.org/2000/svg">
<g id="#fe4b47ff">
<path fill="#fe4b47" opacity="1.00" d=" M 15.13 5.00 C 17.88 4.85 16.80 8.26 17.09 9.98 C 16.76 12.10 17.92 15.16 15.79 16.54 C 15.43 16.35 14.70 15.97 14.33 15.78 C 13.91 12.53 14.08 9.23 14.16 5.97 C 14.40 5.72 14.89 5.24 15.13 5.00 Z" />
<path fill="#fe4b47" opacity="1.00" d=" M 6.03 13.04 C 7.05 10.55 9.34 6.69 12.47 8.79 C 10.86 11.03 8.37 13.04 8.30 16.01 C 8.00 20.88 13.49 25.04 18.06 23.02 C 22.40 21.57 24.52 15.38 21.12 11.96 C 20.44 10.81 18.33 9.85 19.29 8.28 C 21.32 6.85 22.89 9.58 24.02 10.96 C 28.33 16.79 23.49 26.59 16.07 25.99 C 9.23 27.16 3.48 19.29 6.03 13.04 Z" />
</g>
</svg>
