<?xml version="1.0" encoding="UTF-8" ?>
<!DOCTYPE svg PUBLIC "-//W3C//DTD SVG 1.1//EN" "http://www.w3.org/Graphics/SVG/1.1/DTD/svg11.dtd">
<svg width="30pt" height="30pt" viewBox="0 0 30 30" version="1.1" xmlns="http://www.w3.org/2000/svg">
<g id="#f41f1fff">
<path fill="#f41f1f" opacity="1.00" d=" M 15.04 9.18 C 13.67 7.49 13.20 4.81 15.22 3.36 C 15.51 5.30 15.46 7.27 15.04 9.18 Z" />
<path fill="#f41f1f" opacity="1.00" d=" M 8.13 7.42 C 8.37 6.97 8.83 6.07 9.06 5.62 C 9.77 7.14 12.45 8.67 10.73 10.42 C 9.88 9.41 9.01 8.41 8.13 7.42 Z" />
<path fill="#f41f1f" opacity="1.00" d=" M 17.73 10.67 C 18.10 8.81 19.05 7.17 20.33 5.80 C 21.87 7.97 19.44 9.75 17.73 10.67 Z" />
<path fill="#f41f1f" opacity="1.00" d=" M 11.60 11.51 C 13.73 9.16 17.81 10.44 18.79 13.30 C 19.60 16.23 19.15 19.32 19.22 22.31 C 16.09 22.30 12.96 22.30 9.83 22.30 C 10.07 18.74 8.73 14.34 11.60 11.51 Z" />
<path fill="#f41f1f" opacity="1.00" d=" M 4.37 13.03 C 5.99 11.52 9.27 11.74 9.38 14.41 C 7.69 14.04 6.01 13.57 4.37 13.03 Z" />
<path fill="#f41f1f" opacity="1.00" d=" M 19.54 12.87 C 21.23 12.68 22.95 12.53 24.65 12.79 C 23.24 14.04 20.17 15.82 19.54 12.87 Z" />
<path fill="#f41f1f" opacity="1.00" d=" M 8.55 23.28 C 12.48 23.23 16.44 23.13 20.36 23.35 C 20.63 23.75 21.16 24.54 21.43 24.94 C 16.77 25.04 12.11 25.05 7.45 24.92 C 7.72 24.51 8.27 23.69 8.55 23.28 Z" />
</g>
</svg>
