<?xml version="1.0" encoding="UTF-8" ?>
<!DOCTYPE svg PUBLIC "-//W3C//DTD SVG 1.1//EN" "http://www.w3.org/Graphics/SVG/1.1/DTD/svg11.dtd">
<svg width="30pt" height="30pt" viewBox="0 0 30 30" version="1.1" xmlns="http://www.w3.org/2000/svg">
<g id="#e3850cff">
<path fill="#e3850c" opacity="1.00" d=" M 7.03 10.10 C 13.49 6.09 22.54 8.04 27.04 14.08 C 27.04 14.88 27.04 16.46 27.04 17.26 C 21.34 25.30 7.21 25.26 2.14 16.62 C 1.55 13.60 4.79 11.49 7.03 10.10 M 12.12 10.10 C 7.90 11.87 7.35 18.28 11.18 20.78 C 14.94 23.50 20.97 20.67 20.82 15.89 C 21.21 11.45 16.06 8.12 12.12 10.10 Z" />
<path fill="#e3850c" opacity="1.00" d=" M 12.45 12.51 C 15.57 9.58 20.63 14.65 17.96 17.87 C 16.56 20.44 12.51 20.20 11.29 17.60 C 10.07 15.92 10.89 13.65 12.45 12.51 Z" />
</g>
</svg>
