<?xml version="1.0" encoding="UTF-8" ?>
<!DOCTYPE svg PUBLIC "-//W3C//DTD SVG 1.1//EN" "http://www.w3.org/Graphics/SVG/1.1/DTD/svg11.dtd">
<svg width="30pt" height="30pt" viewBox="0 0 30 30" version="1.1" xmlns="http://www.w3.org/2000/svg">
<g id="#f2ef1bff">
<path fill="#f2ef1b" opacity="1.00" d=" M 22.02 6.19 C 22.76 6.16 24.23 6.11 24.96 6.08 C 24.95 12.04 24.93 17.99 24.97 23.95 C 24.24 23.93 22.78 23.90 22.04 23.89 C 22.13 17.99 22.16 12.08 22.02 6.19 Z" />
<path fill="#f2ef1b" opacity="1.00" d=" M 10.66 11.79 C 11.63 11.79 13.57 11.79 14.53 11.79 C 14.49 15.84 14.48 19.89 14.51 23.93 C 13.56 23.94 11.66 23.94 10.70 23.95 C 10.70 19.90 10.68 15.85 10.66 11.79 Z" />
<path fill="#f2ef1b" opacity="1.00" d=" M 16.36 23.91 C 16.37 21.78 16.35 19.65 16.29 17.52 C 17.26 17.51 19.19 17.47 20.16 17.45 C 20.15 19.62 20.15 21.79 20.15 23.96 C 18.89 23.95 17.62 23.93 16.36 23.91 Z" />
<path fill="#f2ef1b" opacity="1.00" d=" M 5.02 19.28 C 6.31 19.31 7.60 19.34 8.89 19.38 C 8.85 20.89 8.82 22.40 8.79 23.92 C 7.53 23.93 6.28 23.93 5.02 23.93 C 5.02 22.38 5.02 20.83 5.02 19.28 Z" />
</g>
</svg>
