<?xml version="1.0" encoding="UTF-8" ?>
<!DOCTYPE svg PUBLIC "-//W3C//DTD SVG 1.1//EN" "http://www.w3.org/Graphics/SVG/1.1/DTD/svg11.dtd">
<svg width="30pt" height="30pt" viewBox="0 0 30 30" version="1.1" xmlns="http://www.w3.org/2000/svg">
<g id="#ff0000ff">
<path fill="#ff0000" opacity="1.00" d=" M 11.44 4.70 C 18.96 2.12 27.36 9.32 25.87 17.15 C 25.30 25.96 13.18 30.25 7.00 24.09 C 0.35 18.68 3.11 6.69 11.44 4.70 M 9.19 10.06 C 9.65 12.52 12.03 13.88 13.59 15.63 C 11.86 17.30 9.67 18.66 8.82 21.03 C 11.24 20.77 12.44 18.44 14.22 17.10 C 16.61 17.46 17.53 20.73 20.10 21.16 C 19.55 18.66 17.23 17.27 15.58 15.53 C 17.10 13.76 20.03 12.57 19.82 9.84 C 17.73 10.98 16.22 12.80 14.76 14.62 C 13.04 12.96 11.56 10.81 9.19 10.06 Z" />
</g>
<g id="#ffffffff">
<path fill="#ffffff" opacity="1.00" d=" M 9.19 10.06 C 11.56 10.81 13.04 12.96 14.76 14.62 C 16.22 12.80 17.73 10.98 19.82 9.84 C 20.03 12.57 17.10 13.76 15.58 15.53 C 17.23 17.27 19.55 18.66 20.10 21.16 C 17.53 20.73 16.61 17.46 14.22 17.10 C 12.44 18.44 11.24 20.77 8.82 21.03 C 9.67 18.66 11.86 17.30 13.59 15.63 C 12.03 13.88 9.65 12.52 9.19 10.06 Z" />
</g>
</svg>
