<?xml version="1.0" encoding="UTF-8" ?>
<!DOCTYPE svg PUBLIC "-//W3C//DTD SVG 1.1//EN" "http://www.w3.org/Graphics/SVG/1.1/DTD/svg11.dtd">
<svg width="30pt" height="30pt" viewBox="0 0 30 30" version="1.1" xmlns="http://www.w3.org/2000/svg">
<g id="#20ab68ff">
<path fill="#20ab68" opacity="1.00" d=" M 2.45 5.43 C 8.81 4.39 15.49 5.32 21.97 4.97 C 23.56 5.23 25.88 4.36 26.90 6.01 C 27.22 11.72 26.84 17.44 27.01 23.15 C 23.91 23.91 20.71 23.59 17.56 23.58 L 17.59 25.16 C 18.56 25.22 20.50 25.36 21.47 25.42 C 16.91 26.26 12.09 26.27 7.53 25.44 C 8.50 25.37 10.44 25.22 11.41 25.14 L 11.41 23.58 C 8.27 23.62 5.10 23.83 1.99 23.23 C 2.38 17.33 1.33 11.16 2.45 5.43 M 3.56 6.72 C 3.62 10.84 3.61 14.96 3.61 19.08 C 10.87 19.08 18.12 19.09 25.38 19.08 C 25.40 14.95 25.38 10.83 25.44 6.71 C 18.15 6.55 10.85 6.65 3.56 6.72 Z" />
<path fill="#20ab68" opacity="1.00" d=" M 15.80 13.90 C 17.91 12.29 19.51 10.20 21.12 8.13 C 21.60 8.17 22.55 8.25 23.03 8.29 C 24.19 9.74 21.92 10.39 21.08 10.99 C 18.94 11.97 17.56 13.92 16.30 15.83 C 15.90 15.83 15.09 15.84 14.69 15.84 C 14.19 14.31 13.84 12.49 11.94 12.20 C 9.97 13.22 8.65 15.07 7.42 16.84 C 6.66 16.20 5.87 15.60 5.08 14.98 C 7.93 13.66 10.73 12.07 12.46 9.34 C 13.76 10.72 14.68 12.38 15.80 13.90 Z" />
</g>
</svg>
